<svg width="24" height="25" viewBox="0 0 24 25" fill="none" xmlns="http://www.w3.org/2000/svg">
<g clip-path="url(#clip0_1_46372)">
<path d="M3.3623 10.4064H21.1863" stroke="#222222" stroke-opacity="0.4" stroke-width="1.5" stroke-linecap="round" stroke-linejoin="round"/>
<path d="M16.7115 14.3117H16.7208" stroke="#222222" stroke-opacity="0.4" stroke-width="1.5" stroke-linecap="round" stroke-linejoin="round"/>
<path d="M12.274 14.3117H12.2833" stroke="#222222" stroke-opacity="0.4" stroke-width="1.5" stroke-linecap="round" stroke-linejoin="round"/>
<path d="M7.82722 14.3117H7.83648" stroke="#222222" stroke-opacity="0.4" stroke-width="1.5" stroke-linecap="round" stroke-linejoin="round"/>
<path d="M16.7115 18.1984H16.7208" stroke="#222222" stroke-opacity="0.4" stroke-width="1.5" stroke-linecap="round" stroke-linejoin="round"/>
<path d="M12.274 18.1984H12.2833" stroke="#222222" stroke-opacity="0.4" stroke-width="1.5" stroke-linecap="round" stroke-linejoin="round"/>
<path d="M7.82722 18.1984H7.83648" stroke="#222222" stroke-opacity="0.4" stroke-width="1.5" stroke-linecap="round" stroke-linejoin="round"/>
<path d="M16.3133 3.00195V6.29273" stroke="#222222" stroke-opacity="0.4" stroke-width="1.5" stroke-linecap="round" stroke-linejoin="round"/>
<path d="M8.23517 3.00195V6.29273" stroke="#222222" stroke-opacity="0.4" stroke-width="1.5" stroke-linecap="round" stroke-linejoin="round"/>
<path fill-rule="evenodd" clip-rule="evenodd" d="M16.5078 4.58105H8.04049C5.1038 4.58105 3.26953 6.21699 3.26953 9.22408V18.2737C3.26953 21.3281 5.1038 23.0019 8.04049 23.0019H16.4985C19.4445 23.0019 21.2695 21.3565 21.2695 18.3494V9.22408C21.2788 6.21699 19.4538 4.58105 16.5078 4.58105Z" stroke="#A1A1A1" stroke-width="1.5" stroke-linecap="round" stroke-linejoin="round"/>
</g>
<defs>
<clipPath id="clip0_1_46372">
<rect width="23.0743" height="23.0743" fill="white" transform="translate(0.462891 0.962891)"/>
</clipPath>
</defs>
</svg>
