<svg width="12" height="12" viewBox="0 0 12 12" fill="none" xmlns="http://www.w3.org/2000/svg">
<path fill-rule="evenodd" clip-rule="evenodd" d="M5.25 1.75C3.59314 1.75 2.25 3.09314 2.25 4.75C2.25 6.40682 3.59314 7.75 5.25 7.75C6.90682 7.75 8.25 6.40682 8.25 4.75C8.25 3.09314 6.90682 1.75 5.25 1.75ZM0.75 4.75C0.75 2.26472 2.76472 0.25 5.25 0.25C7.73527 0.25 9.75 2.26472 9.75 4.75C9.75 5.72185 9.4419 6.62177 8.91803 7.35737L11.7803 10.2197C12.0732 10.5125 12.0732 10.9874 11.7803 11.2803C11.4874 11.5732 11.0125 11.5732 10.7197 11.2803L7.85737 8.41803C7.12177 8.9419 6.22185 9.25 5.25 9.25C2.76472 9.25 0.75 7.23527 0.75 4.75Z" fill="#A9A9A9"/>
</svg>
