<svg width="24" height="24" viewBox="0 0 24 24" fill="none" xmlns="http://www.w3.org/2000/svg">
<path fill-rule="evenodd" clip-rule="evenodd" d="M9.76006 3.78667C6.46108 3.78667 3.78672 6.46103 3.78672 9.76002C3.78672 13.0589 6.46108 15.7334 9.76006 15.7334C13.059 15.7334 15.7334 13.0589 15.7334 9.76002C15.7334 6.46103 13.059 3.78667 9.76006 3.78667ZM0.800049 9.76002C0.800049 4.81154 4.81158 0.800003 9.76006 0.800003C14.7085 0.800003 18.7201 4.81154 18.7201 9.76002C18.7201 11.6951 18.1066 13.4869 17.0635 14.9516L22.7627 20.6508C23.3458 21.2339 23.3458 22.1795 22.7627 22.7626C22.1795 23.3458 21.234 23.3458 20.6508 22.7626L14.9516 17.0635C13.487 18.1066 11.6951 18.72 9.76006 18.72C4.81158 18.72 0.800049 14.7085 0.800049 9.76002Z" fill="#A9A9A9"/>
</svg>
