<svg width="206" height="41" viewBox="0 0 206 41" fill="none" xmlns="http://www.w3.org/2000/svg">
<path d="M78.139 12.4106V28.0156H75.009V17.8656L70.8283 28.0156H68.4585L64.2554 17.8656V28.0156H61.1255V12.4106H64.6802L69.6434 24.0138L74.6066 12.4106H78.139ZM86.7332 28.2168C85.5409 28.2168 84.4677 27.956 83.5139 27.4343C82.56 26.8978 81.8073 26.1451 81.2558 25.1763C80.7193 24.2075 80.451 23.0897 80.451 21.8228C80.451 20.5559 80.7267 19.4381 81.2782 18.4693C81.8446 17.5005 82.6121 16.7553 83.5809 16.2336C84.5497 15.697 85.6303 15.4288 86.8227 15.4288C88.015 15.4288 89.0956 15.697 90.0644 16.2336C91.0332 16.7553 91.7933 17.5005 92.3448 18.4693C92.9112 19.4381 93.1943 20.5559 93.1943 21.8228C93.1943 23.0897 92.9037 24.2075 92.3224 25.1763C91.7561 26.1451 90.981 26.8978 89.9973 27.4343C89.0285 27.956 87.9405 28.2168 86.7332 28.2168ZM86.7332 25.4893C87.2996 25.4893 87.8287 25.3552 88.3206 25.0869C88.8273 24.8037 89.2297 24.3864 89.5278 23.8349C89.8259 23.2834 89.975 22.6127 89.975 21.8228C89.975 20.6453 89.662 19.7436 89.036 19.1176C88.4249 18.4767 87.6722 18.1563 86.7779 18.1563C85.8837 18.1563 85.131 18.4767 84.5199 19.1176C83.9237 19.7436 83.6256 20.6453 83.6256 21.8228C83.6256 23.0003 83.9163 23.9094 84.4976 24.5503C85.0937 25.1763 85.839 25.4893 86.7332 25.4893ZM98.6202 17.4409C99.0227 16.8447 99.5741 16.3603 100.275 15.9877C100.99 15.6151 101.802 15.4288 102.712 15.4288C103.77 15.4288 104.724 15.6896 105.573 16.2112C106.438 16.7329 107.116 17.4781 107.608 18.4469C108.114 19.4008 108.368 20.5112 108.368 21.7781C108.368 23.045 108.114 24.1703 107.608 25.154C107.116 26.1228 106.438 26.8754 105.573 27.412C104.724 27.9486 103.77 28.2168 102.712 28.2168C101.787 28.2168 100.975 28.038 100.275 27.6803C99.589 27.3077 99.0376 26.8307 98.6202 26.2494V28.0156H95.4903V11.4716H98.6202V17.4409ZM105.171 21.7781C105.171 21.0329 105.014 20.392 104.701 19.8554C104.403 19.3039 104.001 18.8866 103.494 18.6034C103.002 18.3202 102.466 18.1786 101.884 18.1786C101.318 18.1786 100.781 18.3277 100.275 18.6258C99.7828 18.909 99.3804 19.3263 99.0674 19.8778C98.7693 20.4292 98.6202 21.0776 98.6202 21.8228C98.6202 22.568 98.7693 23.2164 99.0674 23.7678C99.3804 24.3193 99.7828 24.7441 100.275 25.0422C100.781 25.3254 101.318 25.467 101.884 25.467C102.466 25.467 103.002 25.3179 103.494 25.0198C104.001 24.7217 104.403 24.2969 104.701 23.7455C105.014 23.194 105.171 22.5382 105.171 21.7781ZM112.23 14.1544C111.678 14.1544 111.216 13.983 110.843 13.6402C110.486 13.2825 110.307 12.8428 110.307 12.3212C110.307 11.7995 110.486 11.3673 110.843 11.0245C111.216 10.6668 111.678 10.4879 112.23 10.4879C112.781 10.4879 113.236 10.6668 113.593 11.0245C113.966 11.3673 114.152 11.7995 114.152 12.3212C114.152 12.8428 113.966 13.2825 113.593 13.6402C113.236 13.983 112.781 14.1544 112.23 14.1544ZM113.772 15.63V28.0156H110.642V15.63H113.772ZM119.995 11.4716V28.0156H116.865V11.4716H119.995ZM124.674 14.1544C124.123 14.1544 123.661 13.983 123.288 13.6402C122.93 13.2825 122.752 12.8428 122.752 12.3212C122.752 11.7995 122.93 11.3673 123.288 11.0245C123.661 10.6668 124.123 10.4879 124.674 10.4879C125.226 10.4879 125.68 10.6668 126.038 11.0245C126.411 11.3673 126.597 11.7995 126.597 12.3212C126.597 12.8428 126.411 13.2825 126.038 13.6402C125.68 13.983 125.226 14.1544 124.674 14.1544ZM126.217 15.63V28.0156H123.087V15.63H126.217ZM132.953 18.201V24.1926C132.953 24.6099 133.05 24.9155 133.244 25.1092C133.453 25.2881 133.796 25.3775 134.272 25.3775H135.726V28.0156H133.758C131.12 28.0156 129.801 26.7338 129.801 24.1703V18.201H128.326V15.63H129.801V12.5671H132.953V15.63H135.726V18.201H132.953ZM149.826 15.63L142.158 33.8731H138.826L141.509 27.7026L136.546 15.63H140.056L143.253 24.282L146.495 15.63H149.826ZM150.753 20.1907C150.753 18.6556 151.096 17.2844 151.782 16.0771C152.482 14.8549 153.428 13.9085 154.621 13.2378C155.828 12.5522 157.177 12.2094 158.667 12.2094C160.411 12.2094 161.939 12.6565 163.251 13.5508C164.562 14.4451 165.479 15.6821 166 17.262H162.401C162.043 16.5168 161.537 15.9579 160.881 15.5853C160.24 15.2126 159.495 15.0263 158.645 15.0263C157.736 15.0263 156.924 15.2424 156.208 15.6747C155.508 16.092 154.956 16.6882 154.554 17.4632C154.166 18.2383 153.972 19.1474 153.972 20.1907C153.972 21.2192 154.166 22.1283 154.554 22.9183C154.956 23.6933 155.508 24.2969 156.208 24.7292C156.924 25.1465 157.736 25.3552 158.645 25.3552C159.495 25.3552 160.24 25.1689 160.881 24.7962C161.537 24.4087 162.043 23.8424 162.401 23.0971H166C165.479 24.6919 164.562 25.9364 163.251 26.8307C161.954 27.7101 160.426 28.1498 158.667 28.1498C157.177 28.1498 155.828 27.8144 154.621 27.1437C153.428 26.4581 152.482 25.5117 151.782 24.3044C151.096 23.0971 150.753 21.7259 150.753 20.1907ZM167.869 21.7781C167.869 20.5261 168.115 19.4157 168.607 18.4469C169.114 17.4781 169.792 16.7329 170.641 16.2112C171.506 15.6896 172.467 15.4288 173.525 15.4288C174.449 15.4288 175.254 15.6151 175.94 15.9877C176.64 16.3603 177.199 16.8298 177.617 17.3962V15.63H180.769V28.0156H177.617V26.2047C177.214 26.786 176.655 27.2704 175.94 27.6579C175.239 28.0305 174.427 28.2168 173.503 28.2168C172.46 28.2168 171.506 27.9486 170.641 27.412C169.792 26.8754 169.114 26.1228 168.607 25.154C168.115 24.1703 167.869 23.045 167.869 21.7781ZM177.617 21.8228C177.617 21.0627 177.467 20.4143 177.169 19.8778C176.871 19.3263 176.469 18.909 175.962 18.6258C175.455 18.3277 174.911 18.1786 174.33 18.1786C173.749 18.1786 173.212 18.3202 172.72 18.6034C172.229 18.8866 171.826 19.3039 171.513 19.8554C171.215 20.392 171.066 21.0329 171.066 21.7781C171.066 22.5233 171.215 23.1791 171.513 23.7455C171.826 24.2969 172.229 24.7217 172.72 25.0198C173.227 25.3179 173.764 25.467 174.33 25.467C174.911 25.467 175.455 25.3254 175.962 25.0422C176.469 24.7441 176.871 24.3268 177.169 23.7902C177.467 23.2387 177.617 22.5829 177.617 21.8228ZM186.956 17.5526C187.358 16.8968 187.88 16.3826 188.521 16.01C189.177 15.6374 189.922 15.4511 190.756 15.4511V18.7376H189.929C188.945 18.7376 188.2 18.9686 187.694 19.4306C187.202 19.8927 186.956 20.6975 186.956 21.8452V28.0156H183.826V15.63H186.956V17.5526ZM204.378 21.5545C204.378 22.0016 204.349 22.4041 204.289 22.7618H195.234C195.309 23.6561 195.622 24.3566 196.173 24.8633C196.725 25.3701 197.403 25.6234 198.208 25.6234C199.37 25.6234 200.198 25.1241 200.689 24.1255H204.065C203.708 25.3179 203.022 26.3016 202.008 27.0766C200.995 27.8368 199.75 28.2168 198.275 28.2168C197.083 28.2168 196.009 27.956 195.056 27.4343C194.117 26.8978 193.379 26.1451 192.842 25.1763C192.321 24.2075 192.06 23.0897 192.06 21.8228C192.06 20.541 192.321 19.4157 192.842 18.4469C193.364 17.4781 194.094 16.7329 195.033 16.2112C195.972 15.6896 197.053 15.4288 198.275 15.4288C199.452 15.4288 200.503 15.6821 201.427 16.1889C202.366 16.6956 203.089 17.4185 203.596 18.3575C204.117 19.2816 204.378 20.3472 204.378 21.5545ZM201.137 20.6602C201.122 19.8554 200.831 19.2145 200.265 18.7376C199.698 18.2457 199.005 17.9998 198.185 17.9998C197.41 17.9998 196.755 18.2383 196.218 18.7152C195.696 19.1772 195.376 19.8256 195.257 20.6602H201.137Z" fill="#14B8A6"/>
<path d="M43.3455 20.5206H35.0764L28.8746 39.0411L16.4709 2L10.2691 20.5206H2" stroke="#14B8A6" stroke-width="2.03244" stroke-linecap="round" stroke-linejoin="round"/>
</svg>
