<svg width="6" height="24" viewBox="0 0 6 24" fill="none" xmlns="http://www.w3.org/2000/svg">
<path d="M5.625 20.75C5.625 21.4462 5.34844 22.1139 4.85616 22.6062C4.36387 23.0984 3.69619 23.375 3 23.375C2.30381 23.375 1.63613 23.0984 1.14384 22.6062C0.651561 22.1139 0.375 21.4462 0.375 20.75C0.375 20.0538 0.651561 19.3861 1.14384 18.8938C1.63613 18.4016 2.30381 18.125 3 18.125C3.69619 18.125 4.36387 18.4016 4.85616 18.8938C5.34844 19.3861 5.625 20.0538 5.625 20.75ZM5.625 12C5.625 12.6962 5.34844 13.3639 4.85616 13.8562C4.36387 14.3484 3.69619 14.625 3 14.625C2.30381 14.625 1.63613 14.3484 1.14384 13.8562C0.651561 13.3639 0.375 12.6962 0.375 12C0.375 11.3038 0.651561 10.6361 1.14384 10.1438C1.63613 9.65156 2.30381 9.375 3 9.375C3.69619 9.375 4.36387 9.65156 4.85616 10.1438C5.34844 10.6361 5.625 11.3038 5.625 12ZM5.625 3.25C5.625 3.94619 5.34844 4.61387 4.85616 5.10616C4.36387 5.59844 3.69619 5.875 3 5.875C2.30381 5.875 1.63613 5.59844 1.14384 5.10616C0.651561 4.61387 0.375 3.94619 0.375 3.25C0.375 2.55381 0.651561 1.88613 1.14384 1.39384C1.63613 0.901562 2.30381 0.625 3 0.625C3.69619 0.625 4.36387 0.901562 4.85616 1.39384C5.34844 1.88613 5.625 2.55381 5.625 3.25Z" fill="#A9A9A9"/>
</svg>
