<svg width="20" height="20" viewBox="0 0 20 20" fill="none" xmlns="http://www.w3.org/2000/svg">
<path d="M8.09046 10.8669C8.48923 11.4 8.998 11.8411 9.58225 12.1603C10.1665 12.4795 10.8126 12.6694 11.4766 12.7169C12.1407 12.7645 12.8072 12.6687 13.431 12.436C14.0548 12.2033 14.6212 11.8392 15.0919 11.3683L17.8776 8.5826C18.7233 7.70695 19.1913 6.53415 19.1807 5.31681C19.1702 4.09947 18.6819 2.93498 17.821 2.07416C16.9602 1.21333 15.7957 0.725048 14.5784 0.71447C13.361 0.703892 12.1883 1.17187 11.3126 2.0176L9.71546 3.60546M11.8047 9.00974C11.406 8.47662 10.8972 8.0355 10.3129 7.7163C9.72869 7.39709 9.08263 7.20728 8.41857 7.15972C7.7545 7.11216 7.08798 7.20797 6.46421 7.44066C5.84043 7.67335 5.27399 8.03746 4.80331 8.50831L2.0176 11.294C1.17187 12.1697 0.703892 13.3425 0.71447 14.5598C0.725048 15.7772 1.21333 16.9416 2.07416 17.8025C2.93498 18.6633 4.09947 19.1516 5.31681 19.1622C6.53415 19.1727 7.70695 18.7048 8.5826 17.859L10.1705 16.2712" stroke="#C6C6C6" stroke-width="0.928571" stroke-linecap="round" stroke-linejoin="round"/>
</svg>
